<svg width="40" height="40" viewBox="0 0 40 40" fill="none" xmlns="http://www.w3.org/2000/svg">
<g clip-path="url(#clip0_57_7162)">
<path d="M26 19.9998C26 21.5911 25.3679 23.1172 24.2427 24.2424C23.1175 25.3677 21.5913 25.9998 20 25.9998C18.4088 25.9998 16.8826 25.3677 15.7574 24.2424C14.6322 23.1172 14 21.5911 14 19.9998C14 19.6578 14.036 19.3238 14.098 18.9998H12V26.9938C12 27.5498 12.45 27.9998 13.006 27.9998H26.996C27.2625 27.9993 27.5179 27.8931 27.7061 27.7044C27.8943 27.5158 28.0001 27.2603 28 26.9938V18.9998H25.9021C25.9641 19.3238 26 19.6578 26 19.9998ZM20 23.9998C20.5255 23.9997 21.0457 23.8961 21.5311 23.6949C22.0165 23.4937 22.4575 23.1989 22.8289 22.8272C23.2003 22.4556 23.4949 22.0145 23.6959 21.529C23.8968 21.0435 24.0002 20.5232 24 19.9978C23.9999 19.4724 23.8963 18.9521 23.6951 18.4668C23.4939 17.9814 23.1991 17.5404 22.8275 17.169C22.4559 16.7975 22.0147 16.5029 21.5292 16.302C21.0438 16.101 20.5235 15.9977 19.998 15.9978C18.9369 15.9981 17.9194 16.4199 17.1692 17.1704C16.4191 17.9209 15.9978 18.9387 15.998 19.9998C15.9983 21.0609 16.4201 22.0785 17.1706 22.8286C17.9211 23.5788 18.9389 24.0001 20 23.9998ZM24.8 15.7998H27.198C27.3574 15.7998 27.5102 15.7367 27.623 15.6242C27.7359 15.5117 27.7995 15.3591 27.8 15.1998V12.8018C27.8 12.6421 27.7366 12.489 27.6237 12.3761C27.5108 12.2632 27.3577 12.1998 27.198 12.1998H24.8C24.6404 12.1998 24.4873 12.2632 24.3744 12.3761C24.2615 12.489 24.198 12.6421 24.198 12.8018V15.1998C24.2 15.5298 24.47 15.7998 24.8 15.7998ZM20 0.799805C14.9079 0.799805 10.0243 2.82266 6.4236 6.42335C2.8229 10.0241 0.800049 14.9076 0.800049 19.9998C0.800049 25.092 2.8229 29.9756 6.4236 33.5763C10.0243 37.177 14.9079 39.1998 20 39.1998C22.5214 39.1998 25.0181 38.7032 27.3476 37.7383C29.677 36.7734 31.7936 35.3591 33.5765 33.5763C35.3594 31.7934 36.7736 29.6768 37.7385 27.3473C38.7034 25.0179 39.2001 22.5212 39.2001 19.9998C39.2001 17.4784 38.7034 14.9817 37.7385 12.6523C36.7736 10.3228 35.3594 8.20624 33.5765 6.42335C31.7936 4.64047 29.677 3.22621 27.3476 2.26132C25.0181 1.29643 22.5214 0.799805 20 0.799805ZM30 27.7778C30 28.9998 29 29.9998 27.778 29.9998H12.222C11 29.9998 10 28.9998 10 27.7778V12.2218C10 10.9998 11 9.9998 12.222 9.9998H27.778C29 9.9998 30 10.9998 30 12.2218V27.7778Z" fill="white"/>
</g>
<defs>
<clipPath id="clip0_57_7162">
<rect width="40" height="40" fill="white"/>
</clipPath>
</defs>
</svg>
